<svg preserveAspectRatio="none" overflow="visible" style="display: block;" width="38.72" height="38.72" viewBox="0 0 38.72 38.72" fill="none" xmlns="http://www.w3.org/2000/svg">
<g id="lets-icons:check-fill" clip-path="url(#clip0_0_4)">
<path id="Vector" fill-rule="evenodd" clip-rule="evenodd" d="M19.36 38.72C21.9024 38.72 24.4199 38.2192 26.7688 37.2463C29.1176 36.2734 31.2518 34.8473 33.0496 33.0496C34.8473 31.2518 36.2734 29.1176 37.2463 26.7688C38.2192 24.4199 38.72 21.9024 38.72 19.36C38.72 16.8176 38.2192 14.3001 37.2463 11.9512C36.2734 9.60239 34.8473 7.46815 33.0496 5.67041C31.2518 3.87267 29.1176 2.44662 26.7688 1.47369C24.4199 0.500761 21.9024 -3.78846e-08 19.36 0C14.2254 7.65114e-08 9.30112 2.03971 5.67041 5.67041C2.03971 9.30112 0 14.2254 0 19.36C0 24.4946 2.03971 29.4189 5.67041 33.0496C9.30112 36.6803 14.2254 38.72 19.36 38.72ZM18.8609 27.19L29.6165 14.2834L26.3124 11.53L17.0626 22.6275L12.2764 17.8392L9.23472 20.8808L15.6881 27.3342L17.353 28.9991L18.8609 27.19Z" fill="#B71011"/>
</g>
<defs>
<clipPath id="clip0_0_4">
<rect width="38.72" height="38.72" fill="white"/>
</clipPath>
</defs>
</svg>
